<?xml version="1.0" encoding="UTF-8" standalone="no"?><!DOCTYPE svg PUBLIC "-//W3C//DTD SVG 1.1//EN" "http://www.w3.org/Graphics/SVG/1.1/DTD/svg11.dtd"><svg width="100%" height="100%" viewBox="0 0 1296 614" version="1.1" xmlns="http://www.w3.org/2000/svg" xmlns:xlink="http://www.w3.org/1999/xlink" xml:space="preserve" xmlns:serif="http://www.serif.com/" style="fill-rule:evenodd;clip-rule:evenodd;stroke-linejoin:round;stroke-miterlimit:2;"><g id="Layer_1-2"><path d="M4.741,418.436l0,-26.097l49.2,0l0,-201.528l-47.56,0l-0,-26.097l68.881,0l0,227.626l49.2,0l0,26.097l-119.721,0Z" style="fill-rule:nonzero;"/><path d="M221.223,423.51c-14.942,0 -27.151,-6.524 -36.627,-19.573c-9.476,-13.049 -14.213,-32.38 -14.213,-57.994l0,-107.289l21.32,0l0,103.664c0,18.848 2.916,32.622 8.747,41.321c5.831,8.699 14.76,13.049 26.787,13.049c12.938,0 23.097,-5.86 30.477,-17.579c7.38,-11.72 11.07,-27.366 11.07,-46.939l0,-93.515l21.32,0l0,179.781l-21.32,0l0,-32.622l-3.28,0c-4.373,11.599 -10.113,20.781 -17.22,27.547c-7.107,6.766 -16.127,10.149 -27.06,10.149Z" style="fill-rule:nonzero;"/><path d="M401.624,423.51c-12.573,0 -24.145,-3.564 -34.714,-10.693c-10.569,-7.128 -19.088,-17.579 -25.557,-31.353c-6.469,-13.774 -9.703,-30.447 -9.703,-50.02l0,-4.35c0,-19.331 3.234,-36.004 9.703,-50.02c6.469,-14.015 14.988,-24.768 25.557,-32.259c10.569,-7.491 22.14,-11.236 34.714,-11.236c11.48,0 21.73,2.96 30.75,8.88c9.02,5.92 16.4,14.076 22.14,24.466c5.74,10.391 9.43,22.231 11.07,35.521l-21.32,6.524c-0.729,-8.457 -2.824,-16.371 -6.287,-23.741c-3.462,-7.37 -8.246,-13.351 -14.35,-17.942c-6.105,-4.591 -13.621,-6.887 -22.55,-6.887c-8.747,0 -16.719,2.839 -23.917,8.518c-7.198,5.679 -12.938,13.532 -17.22,23.56c-4.282,10.028 -6.423,21.566 -6.423,34.615l0,4.35c0,13.532 2.141,25.191 6.423,34.978c4.282,9.786 10.068,17.277 17.357,22.473c7.289,5.195 15.398,7.793 24.327,7.793c8.929,0 16.446,-2.356 22.55,-7.068c6.105,-4.712 10.842,-10.753 14.213,-18.123c3.371,-7.37 5.512,-15.163 6.423,-23.379l21.32,6.524c-1.822,13.29 -5.558,25.131 -11.207,35.521c-5.649,10.391 -12.983,18.546 -22.004,24.466c-9.02,5.92 -19.452,8.88 -31.297,8.88Z" style="fill-rule:nonzero;"/><path d="M566.993,423.51c-12.938,0 -24.372,-3.927 -34.304,-11.78c-9.931,-7.853 -17.721,-18.727 -23.37,-32.622c-5.649,-13.894 -8.473,-30.024 -8.473,-48.389l0,-8.699c0,-16.915 2.916,-32.017 8.747,-45.308c5.831,-13.29 13.803,-23.802 23.917,-31.534c10.113,-7.733 21.457,-11.599 34.03,-11.599c11.116,0 20.728,2.658 28.837,7.974c8.109,5.316 14.76,12.082 19.954,20.298c5.193,8.216 9.02,16.975 11.48,26.278c2.46,9.303 3.69,17.942 3.69,25.916l0,23.198l-109.334,0c0.547,17.64 4.783,31.957 12.71,42.952c7.927,10.995 18.815,16.492 32.664,16.492c12.938,0 22.596,-3.625 28.974,-10.874c6.378,-7.249 10.751,-15.948 13.12,-26.097l20.227,7.249c-3.827,16.673 -10.888,30.266 -21.184,40.777c-10.296,10.511 -24.19,15.767 -41.684,15.767Zm-44.28,-112.363l87.467,0c-0.364,-10.391 -2.597,-19.392 -6.697,-27.003c-4.1,-7.612 -9.339,-13.471 -15.717,-17.579c-6.378,-4.108 -13.12,-6.162 -20.227,-6.162c-12.027,0 -22.14,4.833 -30.34,14.498c-8.2,9.666 -13.029,21.748 -14.487,36.246Z" style="fill-rule:nonzero;"/><path d="M673.867,418.436l0,-26.097l49.2,0l0,-201.528l-47.56,0l0,-26.097l68.881,0l0,227.626l49.2,0l0,26.097l-119.721,0Z" style="fill-rule:nonzero;"/><path d="M893.629,423.51c-11.845,0 -22.55,-3.564 -32.117,-10.693c-9.567,-7.128 -17.175,-17.519 -22.824,-31.172c-5.649,-13.653 -8.473,-30.386 -8.473,-50.201l0,-5.799c0,-19.573 2.824,-36.246 8.473,-50.02c5.649,-13.774 13.257,-24.224 22.824,-31.353c9.567,-7.128 20.09,-10.693 31.57,-10.693c9.293,0 17.721,2.718 25.284,8.155c7.562,5.437 13.53,13.834 17.904,25.191l3.28,0l0,-28.272l21.32,0l0,142.81c0,7.249 2.46,10.874 7.38,10.874l6.833,0l0,26.097l-14.487,0c-5.649,0 -10.569,-2.416 -14.76,-7.249c-4.191,-4.833 -6.287,-12.565 -6.287,-23.198l-3.28,0c-4.373,11.84 -10.432,20.721 -18.177,26.641c-7.745,5.92 -15.899,8.88 -24.464,8.88Zm2.187,-26.822c12.756,0 23.234,-6.041 31.434,-18.123c8.2,-12.082 12.3,-28.03 12.3,-47.845l0,-4.35c0,-12.807 -1.913,-24.164 -5.74,-34.071c-3.827,-9.907 -9.02,-17.7 -15.58,-23.379c-6.56,-5.679 -14.031,-8.518 -22.414,-8.518c-8.382,0 -15.853,2.718 -22.414,8.155c-6.56,5.437 -11.753,13.049 -15.58,22.835c-3.827,9.786 -5.74,21.204 -5.74,34.253l0,5.799c0,20.298 4.1,36.246 12.3,47.845c8.2,11.599 18.678,17.398 31.434,17.398Z" style="fill-rule:nonzero;"/><path d="M1074.578,423.51c-8.747,0 -17.493,-2.718 -26.24,-8.155c-8.747,-5.437 -15.489,-13.592 -20.227,-24.466l-3.28,0l0,27.547l-21.32,0l0,-253.723l21.32,0l0,102.214l3.28,0c4.738,-10.874 11.298,-19.15 19.68,-24.829c8.382,-5.679 17.493,-8.518 27.334,-8.518c11.116,0 21.411,3.564 30.887,10.693c9.476,7.128 17.083,17.519 22.824,31.172c5.74,13.653 8.61,30.145 8.61,49.476l0,7.249c0,19.573 -2.824,36.125 -8.473,49.657c-5.649,13.532 -13.257,23.862 -22.824,30.99c-9.567,7.128 -20.09,10.693 -31.57,10.693Zm-4.373,-26.822c12.938,0 23.735,-5.799 32.39,-17.398c8.656,-11.599 12.983,-27.305 12.983,-47.12l0,-7.249c0,-12.807 -2.004,-24.043 -6.013,-33.709c-4.009,-9.666 -9.43,-17.217 -16.263,-22.654c-6.833,-5.437 -14.532,-8.155 -23.097,-8.155c-8.382,0 -15.99,2.839 -22.824,8.518c-6.833,5.679 -12.3,13.471 -16.4,23.379c-4.1,9.907 -6.15,21.264 -6.15,34.071l0,4.35c0,13.29 2.004,24.889 6.013,34.796c4.009,9.907 9.476,17.579 16.4,23.016c6.925,5.437 14.578,8.155 22.96,8.155Z" style="fill-rule:nonzero;"/><path d="M1237.759,423.51c-14.031,0 -25.511,-3.202 -34.44,-9.605c-8.929,-6.403 -15.58,-14.619 -19.954,-24.647c-4.373,-10.028 -6.833,-20.358 -7.38,-30.99l20.227,-6.524c0.911,13.774 4.966,24.829 12.163,33.165c7.198,8.337 16.628,12.505 28.29,12.505c10.022,0 18.086,-2.598 24.19,-7.793c6.105,-5.195 9.157,-12.505 9.157,-21.929c0,-10.149 -3.007,-17.398 -9.02,-21.748c-6.013,-4.35 -15.762,-7.128 -29.247,-8.337c-15.489,-1.45 -27.47,-6.343 -35.944,-14.68c-8.473,-8.337 -12.71,-20.237 -12.71,-35.702l0,-2.175c0,-11.357 2.369,-20.842 7.107,-28.453c4.738,-7.612 10.842,-13.351 18.314,-17.217c7.471,-3.866 15.398,-5.799 23.78,-5.799c12.027,0 22.004,2.718 29.93,8.155c7.927,5.437 13.986,12.445 18.177,21.023c4.191,8.578 6.742,17.459 7.653,26.641l-20.227,6.524c-0.729,-11.599 -4.191,-20.66 -10.387,-27.185c-6.196,-6.524 -14.213,-9.786 -24.054,-9.786c-7.653,0 -14.487,2.175 -20.5,6.524c-6.013,4.35 -9.02,10.874 -9.02,19.573c0,8.699 2.779,15.344 8.337,19.935c5.558,4.591 15.717,7.612 30.477,9.062c15.671,1.691 27.698,6.706 36.08,15.042c8.382,8.337 12.573,20.479 12.573,36.427l0,2.175c0,17.398 -4.966,31.051 -14.897,40.958c-9.931,9.907 -22.824,14.861 -38.677,14.861Z" style="fill-rule:nonzero;"/></g></svg>